<?xml version="1.0" encoding="iso-8859-1"?>
<!-- Generator: Adobe Illustrator 16.0.0, SVG Export Plug-In . SVG Version: 6.00 Build 0)  -->
<!DOCTYPE svg PUBLIC "-//W3C//DTD SVG 1.1//EN" "http://www.w3.org/Graphics/SVG/1.1/DTD/svg11.dtd">
<svg version="1.1" id="Capa_1" xmlns="http://www.w3.org/2000/svg" xmlns:xlink="http://www.w3.org/1999/xlink" x="0px" y="0px"
	 width="483.92px" height="483.92px" viewBox="0 0 483.92 483.92" style="enable-background:new 0 0 483.92 483.92;"
	 xml:space="preserve">
<g>
	<g id="Layer_27">
		<g>
			<polygon points="483.92,277.759 483.92,42.974 117.441,42.974 117.441,161.542 144.247,161.542 144.247,69.785 457.124,69.785 
				457.124,243.189 311.019,243.189 311.019,305.356 407.775,305.356 407.775,292.889 331.27,292.889 331.27,277.759 			"/>
			<path d="M0,439.98h135.22V237.131H0V439.98z M70.473,429.805c-3.604,0-6.521-2.926-6.521-6.516c0-3.6,2.917-6.516,6.521-6.516
				c3.595,0,6.511,2.916,6.511,6.516C76.984,426.879,74.067,429.805,70.473,429.805z M19.548,256.679h96.142l-0.01,149.667H19.548
				V256.679z"/>
			<polygon points="259.152,345.486 259.152,372.584 339.326,372.584 339.326,347.33 302.629,345.486 			"/>
			<path d="M150.963,440.946h97.391v-163.82h-97.391V440.946z M200.907,433.864c-3.106,0-5.613-2.507-5.613-5.619
				c0-3.102,2.507-5.618,5.613-5.618c3.098,0,5.614,2.517,5.614,5.618C206.521,431.357,203.995,433.864,200.907,433.864z
				 M201.824,283.915c1.298,0,2.356,1.054,2.356,2.342c0,1.307-1.058,2.351-2.356,2.351c-1.297,0-2.355-1.044-2.355-2.351
				C199.469,284.968,200.527,283.915,201.824,283.915z M187.821,291.777h28.016v2.253h-28.016V291.777z M166.596,302.078
				l66.137-0.02v112.53c-25.304,0.137-53.603,0.234-66.137,0.127V302.078z"/>
			<polygon points="66.888,188.699 283.568,188.699 283.568,318.592 259.152,318.592 259.152,337.672 302.668,337.672 
				302.668,169.619 47.798,169.619 47.798,228.455 66.888,228.455 			"/>
		</g>
	</g>
</g>
<g>
</g>
<g>
</g>
<g>
</g>
<g>
</g>
<g>
</g>
<g>
</g>
<g>
</g>
<g>
</g>
<g>
</g>
<g>
</g>
<g>
</g>
<g>
</g>
<g>
</g>
<g>
</g>
<g>
</g>
</svg>
